<svg width="60" height="67" viewBox="0 0 60 67" fill="none" xmlns="http://www.w3.org/2000/svg">
<path d="M0 0L5.29412 59.9474L30 67L54.7059 59.9474C56.4706 39.9655 58.2353 19.9819 60 0H0ZM3.8534 3.52632H56.1466L51.404 57.2234L30 63.3325L8.59605 57.2234L3.8534 3.52632ZM16.8543 14.1053L15.1585 35.2632H38.0825L37.3587 44.0789L30 45.1706L22.7309 44.0789L22.4104 40.5526H15.5997L16.2891 49.3684L29.9828 52.8947L43.6937 49.3684L45.4412 28.2105H23.0997L23.665 21.1579H38.4168L38.8235 24.6842H45.3516L44.1176 14.1053H16.8543Z" />
</svg>
