<svg width="60" height="45" viewBox="0 0 60 45" fill="none" xmlns="http://www.w3.org/2000/svg">
<path fill-rule="evenodd" clip-rule="evenodd" d="M51.6351 25.8654C49.5388 25.8762 47.722 26.3805 46.1993 27.131C45.6425 26.0191 45.0786 25.0406 44.9838 24.3129C44.8734 23.464 44.745 22.9573 44.8782 21.9452C45.0114 20.933 45.5969 19.5005 45.5873 19.3937C45.5789 19.2868 45.4565 18.7717 44.247 18.7621C43.0374 18.7537 42.0031 18.995 41.8807 19.3144C41.7583 19.6338 41.5255 20.353 41.3815 21.1035C41.1691 22.2009 38.9672 26.1152 37.7157 28.1624C37.3065 27.3627 36.9585 26.6591 36.8865 26.102C36.7761 25.2531 36.6477 24.7464 36.7809 23.7342C36.9141 22.722 37.4997 21.2896 37.4901 21.1827C37.4817 21.0759 37.3593 20.5608 36.1497 20.5511C34.9402 20.5427 33.9058 20.7841 33.7834 21.1035C33.661 21.4229 33.5314 22.1697 33.2843 22.8925C33.0359 23.6153 30.108 30.1435 29.3412 31.8353C28.95 32.6974 28.6105 33.3902 28.3705 33.8633C28.3693 33.8621 28.3693 33.8609 28.3693 33.8609C28.3693 33.8609 28.3549 33.8921 28.3285 33.9461C28.1233 34.3483 28.0009 34.5717 28.0009 34.5717C28.0009 34.5717 28.0021 34.5753 28.0045 34.5801C27.8413 34.8755 27.6673 35.1504 27.5809 35.1504C27.5209 35.1504 27.3997 34.3628 27.6073 33.2833C28.0429 31.0188 29.0892 27.4864 29.0796 27.3651C29.0748 27.3027 29.274 26.6879 28.3957 26.3649C27.5425 26.0527 27.2377 26.5738 27.1597 26.575C27.0841 26.5762 27.0277 26.7587 27.0277 26.7587C27.0277 26.7587 27.9793 22.7868 25.2134 22.7868C23.4855 22.7868 21.0904 24.6791 19.9096 26.3937C19.1656 26.7996 17.5721 27.6701 15.8814 28.5994C15.2322 28.956 14.5698 29.321 13.9411 29.668C13.8979 29.6212 13.8559 29.5732 13.8115 29.5264C10.4588 25.9471 4.26228 23.416 4.52507 18.6048C4.62106 16.8554 5.22824 12.2495 16.4334 6.6627C25.6118 2.08564 32.9603 3.34518 34.2298 6.13679C36.0441 10.1243 30.3024 17.5362 20.7712 18.6048C17.1389 19.0119 15.2274 17.6034 14.751 17.0787C14.2507 16.5264 14.1763 16.5012 13.9891 16.6057C13.6843 16.775 13.8775 17.2624 13.9891 17.553C14.2735 18.2938 15.441 19.6086 17.4329 20.2618C19.1848 20.8369 23.4483 21.1527 28.6056 19.1571C34.381 16.9214 38.8904 10.703 37.5669 5.50523C36.2193 0.218563 27.4597 -1.51885 19.1692 1.42766C14.2351 3.18188 8.89408 5.93508 5.05304 9.52876C0.486036 13.8032 -0.241133 17.523 0.0588541 19.0767C1.12561 24.5999 8.73209 28.196 11.7788 30.8615C11.6288 30.9444 11.4872 31.0224 11.3588 31.0933C9.83124 31.8497 4.03309 34.8863 2.58235 38.0945C0.937217 41.7338 2.84394 44.3453 4.10748 44.6971C8.01932 45.7862 12.0343 43.8266 14.1919 40.6064C16.3494 37.3873 16.0854 33.1957 15.0954 31.2818C15.0834 31.2578 15.069 31.2349 15.057 31.2109C15.4518 30.9768 15.8538 30.7403 16.2522 30.5061C17.0297 30.0499 17.7929 29.6236 18.4553 29.2622C18.0845 30.278 17.8133 31.4955 17.6717 33.2545C17.5061 35.3209 18.3521 37.9913 19.4596 39.0419C19.9468 39.5041 20.5336 39.5149 20.9056 39.5149C22.1943 39.5149 22.7823 38.4427 23.4291 37.1736C24.2234 35.6175 24.9278 33.8068 24.9278 33.8068C24.9278 33.8068 24.0434 38.6997 26.4529 38.6997C27.3301 38.6997 28.2133 37.5602 28.6069 36.9803C28.6081 36.9863 28.608 36.9899 28.608 36.9899C28.608 36.9899 28.6308 36.9527 28.6752 36.8758C28.7664 36.7365 28.818 36.6477 28.818 36.6477C28.818 36.6477 28.8204 36.6381 28.8228 36.6225C29.1756 36.0101 29.958 34.6125 31.1315 32.3072C32.6471 29.3294 34.1014 25.6001 34.1014 25.6001C34.1014 25.6001 34.237 26.5126 34.6798 28.0195C34.9402 28.9068 35.4946 29.8878 35.9313 30.8279C35.5798 31.3166 35.3638 31.5964 35.3638 31.5964C35.3638 31.5964 35.3662 31.6012 35.3698 31.6108C35.089 31.9842 34.7734 32.3864 34.4434 32.7802C33.2471 34.2067 31.8215 35.8348 31.6307 36.3055C31.4063 36.859 31.4591 37.2672 31.8935 37.5938C32.2103 37.8328 32.7755 37.87 33.3658 37.8304C34.441 37.7583 35.1982 37.4906 35.5714 37.3285C36.1533 37.1232 36.8313 36.799 37.4673 36.3307C38.6408 35.4674 39.3488 34.2319 39.2816 32.5953C39.2444 31.6936 38.9564 30.8003 38.5928 29.9562C38.6996 29.8025 38.8064 29.6488 38.9132 29.4915C40.7635 26.784 42.1987 23.8098 42.1987 23.8098C42.1987 23.8098 42.3343 24.7224 42.7771 26.2292C43.0014 26.9929 43.4442 27.825 43.8414 28.6414C42.1015 30.0559 41.0227 31.6996 40.6471 32.7778C39.9548 34.7722 40.4971 35.6763 41.5147 35.8816C41.9755 35.9753 42.6271 35.764 43.1166 35.5562C43.7262 35.3545 44.4582 35.0171 45.1422 34.514C46.3157 33.6507 47.4449 32.4416 47.3765 30.8051C47.3453 30.0607 47.1437 29.321 46.8701 28.6102C48.3448 27.9955 50.2551 27.6533 52.6874 27.9378C57.906 28.5478 58.9296 31.8077 58.734 33.1717C58.5384 34.5369 57.444 35.2861 57.078 35.513C56.7121 35.74 56.6005 35.818 56.6317 35.9861C56.6761 36.231 56.8453 36.2214 57.1572 36.1686C57.5868 36.0966 59.8967 35.0592 59.9963 32.5401C60.1211 29.3486 57.0588 25.8366 51.6351 25.8654ZM11.4152 39.4333C9.68725 41.3196 7.27175 42.0328 6.23619 41.4324C5.11784 40.7841 5.56062 38.0057 7.68213 36.0041C8.97448 34.7842 10.6436 33.6603 11.7512 32.9675C12.0031 32.8163 12.3727 32.5929 12.8227 32.3228C12.8971 32.2808 12.9391 32.2567 12.9391 32.2567L12.9379 32.2543C13.0243 32.2027 13.1143 32.1487 13.2055 32.0934C13.9771 34.9439 13.2295 37.4533 11.4152 39.4333ZM24.0062 30.8675C23.4039 32.336 22.1439 36.093 21.3772 35.8912C20.7184 35.7183 20.3176 32.8619 21.2452 30.0523C21.7119 28.6378 22.7091 26.9473 23.2959 26.2905C24.239 25.2351 25.2782 24.8893 25.5302 25.3179C25.853 25.863 24.3842 29.9466 24.0062 30.8675ZM34.4098 35.8348C34.1542 35.9681 33.9202 36.0521 33.8122 35.9873C33.7318 35.9393 33.9178 35.764 33.9178 35.764C33.9178 35.764 35.2186 34.3628 35.7322 33.7252C36.0297 33.3542 36.3765 32.9135 36.7521 32.4212C36.7557 32.4705 36.7569 32.5197 36.7569 32.5677C36.7521 34.2463 35.1322 35.3785 34.4098 35.8348ZM42.4243 34.0061C42.2335 33.8705 42.2659 33.4322 42.891 32.0682C43.137 31.5327 43.6974 30.6298 44.673 29.7677C44.7858 30.1219 44.8554 30.4617 44.853 30.7787C44.8398 32.8907 43.3338 33.6796 42.4243 34.0061Z" />
</svg>
