<svg width="60" height="60" viewBox="0 0 60 60" fill="none" xmlns="http://www.w3.org/2000/svg">
<path d="M30 0C13.457 0 0 13.4583 0 30C0 46.5417 13.457 60 30 60C46.543 60 60 46.5417 60 30C60 13.4583 46.543 0 30 0ZM30 6.52174C35.5565 6.52174 40.6513 8.4587 44.67 11.6804C43.423 12.51 42.6522 13.95 42.6522 15.5217C42.6522 17.6087 43.8261 19.4348 45.1304 21.5217C46.1739 23.2174 47.2174 25.4348 47.2174 28.5652C47.2174 30.7826 46.5652 33.5217 45.2609 36.913L42.6522 45.5217L33.3913 17.8696C34.9565 17.7391 36.3913 17.6087 36.3913 17.6087C37.6957 17.4783 37.5652 15.5217 36.2609 15.5217C36.2609 15.5217 36.2609 15.5217 36.1304 15.5217C36.1304 15.5217 31.9565 15.913 29.2174 15.913C26.7391 15.913 22.4348 15.5217 22.4348 15.5217C22.4348 15.5217 22.4348 15.5217 22.3043 15.5217C21 15.5217 20.8696 17.6087 22.1739 17.6087C22.1739 17.6087 23.4783 17.7391 24.913 17.8696L28.9565 28.8261L23.3478 45.6522L13.9565 17.7391C15.5217 17.6087 16.9565 17.4783 16.9565 17.4783C18.2609 17.3478 18.1304 15.3913 16.8261 15.3913C16.8261 15.3913 16.8261 15.3913 16.6957 15.3913C16.6957 15.3913 13.8887 15.6548 11.3674 15.7487C15.6561 10.1478 22.393 6.52174 30 6.52174ZM6.52174 30C6.52174 27.6522 6.87522 25.3891 7.51565 23.2513L17.1991 49.6722C10.7752 45.4839 6.52174 38.2474 6.52174 30ZM23.0583 52.4348L30 32.087L37.4152 52.2665C35.083 53.0413 32.5943 53.4783 30 53.4783C27.583 53.4783 25.2522 53.1117 23.0583 52.4348ZM43.44 49.2391L50.3478 29.2174C51.373 26.6087 51.9261 24.3365 52.1609 22.2991C52.9996 24.7135 53.4783 27.2974 53.4783 30C53.4783 37.9709 49.5052 44.9961 43.44 49.2391Z" />
</svg>
