<svg width="61" height="56" viewBox="0 0 61 56" fill="none" xmlns="http://www.w3.org/2000/svg">
<path fill-rule="evenodd" clip-rule="evenodd" d="M43.165 0.00426051C42.1315 -0.0306817 41.0497 0.150494 39.9651 0.504068C37.7958 1.21122 35.5227 2.58928 33.1899 4.49732C32.2757 5.24508 31.3531 6.09985 30.4275 7.00677C29.5223 6.12287 28.6187 5.29105 27.7247 4.55979C25.3938 2.65328 23.1268 1.27469 20.9624 0.569147C18.7981 -0.1364 16.6446 -0.158263 14.8759 0.86851C13.1072 1.89528 12.0495 3.78011 11.575 6.01757C11.1005 8.25502 11.1528 10.9195 11.6294 13.9025C11.7949 14.9387 12.031 16.0257 12.2999 17.1331C11.2893 17.441 10.3079 17.7648 9.39776 18.1223C6.65114 19.2009 4.37849 20.4914 2.72354 22.027C1.06859 23.5626 0 25.4264 0 27.4728C0 29.5193 1.06859 31.3804 2.72354 32.916C4.37849 34.4516 6.65114 35.7447 9.39776 36.8234C10.3709 37.2056 11.4245 37.5497 12.5122 37.8751C12.121 39.345 11.804 40.7713 11.588 42.1234C11.111 45.1088 11.0606 47.7737 11.5362 50.0162C12.0118 52.2587 13.07 54.1542 14.8474 55.1861C16.6249 56.2179 18.788 56.1926 20.9573 55.4855C23.1265 54.7783 25.3971 53.4029 27.7299 51.4948C28.6357 50.7539 29.5519 49.9088 30.4689 49.0114C31.3907 49.9142 32.3107 50.7633 33.2209 51.5078C35.5519 53.4143 37.8214 54.7903 39.9858 55.4959C42.1501 56.2014 44.3036 56.2233 46.0723 55.1965C47.841 54.1697 48.8961 52.2849 49.3706 50.0475C49.8451 47.81 49.7928 45.1481 49.3162 42.1651C49.0996 40.8093 48.7824 39.3782 48.3894 37.9037C49.513 37.5704 50.5999 37.217 51.6022 36.8234C54.3489 35.7447 56.6215 34.4516 58.2765 32.916C59.9314 31.3804 61 29.5193 61 27.4728C61 25.4264 59.9314 23.5626 58.2765 22.027C56.6215 20.4914 54.3489 19.2009 51.6022 18.1223C50.6791 17.7597 49.6826 17.4317 48.6561 17.1201C48.9271 16.0059 49.1678 14.9111 49.3344 13.8687C49.8113 10.8833 49.8617 8.21584 49.3861 5.97331C48.9106 3.73078 47.8498 1.83789 46.0723 0.806035C45.1836 0.29011 44.1985 0.0392028 43.165 0.00426051ZM43.0433 2.71676C43.6918 2.73459 44.2451 2.88977 44.7183 3.1645C45.6648 3.71397 46.3644 4.78337 46.7377 6.5434C47.1109 8.30343 47.098 10.6814 46.6574 13.4392C46.5066 14.3834 46.2875 15.3841 46.0387 16.4094C43.3273 15.7533 40.3563 15.2664 37.1898 14.9803C35.6001 12.7659 33.9668 10.7487 32.32 8.95914C33.1911 8.10419 34.0565 7.30458 34.9012 6.61369C37.0561 4.85113 39.0962 3.65181 40.7987 3.09682C41.65 2.81932 42.3948 2.69892 43.0433 2.71676ZM17.8894 2.72457C18.5417 2.70626 19.288 2.82633 20.1418 3.10463C21.8492 3.66123 23.8929 4.86002 26.0497 6.6241C26.8774 7.30112 27.7234 8.08551 28.5764 8.92009C26.9175 10.7243 25.2706 12.759 23.6704 14.9933C20.5173 15.2846 17.5584 15.7741 14.8604 16.4328C14.6134 15.4132 14.3943 14.4176 14.2442 13.4782C13.8032 10.7181 13.7922 8.33975 14.1665 6.57464C14.5409 4.80953 15.2462 3.73206 16.2014 3.17752C16.679 2.90024 17.2371 2.74287 17.8894 2.72457ZM30.4689 10.8777C31.5487 12.0592 32.6287 13.3522 33.6999 14.7434C32.6474 14.6992 31.582 14.6731 30.5 14.6731C29.3964 14.6731 28.3108 14.7001 27.238 14.746C28.3094 13.3537 29.3889 12.0601 30.4689 10.8777ZM30.5 17.3647C32.3026 17.3647 34.0595 17.4392 35.7684 17.5652C36.9443 19.2634 38.0935 21.065 39.1884 22.972C40.1505 24.6475 41.0211 26.3205 41.8136 27.9726C41.0128 29.6467 40.1275 31.3423 39.1521 33.041C38.2936 34.5363 37.397 35.9565 36.4856 37.3258C34.5552 37.488 32.555 37.5783 30.5 37.5783C28.3956 37.5783 26.3504 37.4827 24.3772 37.3128C23.481 35.9632 22.5995 34.5645 21.7546 33.0931C20.7815 31.3982 19.9005 29.7057 19.101 28.0351C19.9039 26.355 20.7888 24.6532 21.7676 22.9485C22.8568 21.0516 24.0026 19.2604 25.172 17.5704C26.8994 17.4416 28.6767 17.3647 30.5 17.3647ZM39.1806 17.8984C41.3657 18.1725 43.4173 18.5531 45.3267 19.0099C44.7602 20.8774 44.0623 22.828 43.2167 24.841C42.6677 23.7769 42.0991 22.7091 41.4848 21.6391C40.7402 20.3425 39.9648 19.1063 39.1806 17.8984ZM21.677 17.9192C20.9094 19.1045 20.1541 20.3167 19.4246 21.5871C18.8024 22.6708 18.222 23.7529 17.6667 24.8306C16.8285 22.8297 16.1348 20.8902 15.5723 19.0334C17.4674 18.5757 19.5071 18.1965 21.677 17.9192ZM47.9493 19.718C48.8889 20.0039 49.7964 20.3022 50.6288 20.6291C53.1608 21.6235 55.1636 22.801 56.4616 24.0054C57.7597 25.2099 58.3231 26.3585 58.3231 27.4728C58.3231 28.5871 57.7597 29.7358 56.4616 30.9402C55.1636 32.1447 53.1608 33.3222 50.6288 34.3165C49.7038 34.6798 48.6875 35.0092 47.6308 35.3214C46.8771 32.9772 45.9151 30.5317 44.7701 28.0351C46.0866 25.1688 47.15 22.3742 47.9493 19.718ZM13.0067 19.731C13.7968 22.3607 14.8466 25.1276 16.1445 27.9648C14.992 30.4759 14.0252 32.9354 13.2682 35.2927C12.2488 34.9888 11.2669 34.6683 10.3712 34.3165C7.83924 33.3222 5.83644 32.1447 4.53837 30.9402C3.2403 29.7358 2.67694 28.5871 2.67694 27.4728C2.67694 26.3585 3.2403 25.2099 4.53837 24.0054C5.83644 22.801 7.83924 21.6235 10.3712 20.6291C11.1908 20.3072 12.0831 20.0132 13.0067 19.731ZM30.5 21.3502C26.8554 21.3502 23.8724 24.3496 23.8724 28.0143C23.8724 31.679 26.8554 34.6784 30.5 34.6784C34.1446 34.6784 37.1276 31.679 37.1276 28.0143C37.1276 24.3496 34.1446 21.3502 30.5 21.3502ZM17.6978 31.1667C18.2555 32.2498 18.8354 33.3366 19.4609 34.4259C19.9502 35.2781 20.45 36.1077 20.9573 36.9223C19.1771 36.6741 17.485 36.3599 15.8959 35.9878C16.4013 34.4316 17.0058 32.8162 17.6978 31.1667ZM43.2504 31.1667C43.9452 32.8201 44.55 34.438 45.0575 35.9982C43.4634 36.3699 41.766 36.683 39.9806 36.9301C40.4945 36.1055 41.0021 35.2656 41.4977 34.4024C42.1186 33.3212 42.6963 32.2419 43.2504 31.1667ZM15.1322 38.5753C17.5312 39.1467 20.1314 39.5857 22.8886 39.8717C24.7292 42.5485 26.6467 44.9537 28.5764 47.0564C27.7135 47.9024 26.8582 48.6964 26.0212 49.381C23.8663 51.1436 21.8235 52.3403 20.121 52.8953C18.4185 53.4503 17.1479 53.3771 16.2014 52.8276C15.2549 52.2782 14.5579 51.2088 14.1847 49.4487C13.8114 47.6887 13.8217 45.3133 14.2623 42.5556C14.4622 41.3045 14.7609 39.9648 15.1322 38.5753ZM45.8238 38.5857C46.1982 39.9837 46.4978 41.3283 46.6988 42.5868C47.1398 45.347 47.1508 47.7253 46.7765 49.4904C46.4022 51.2555 45.702 52.3356 44.7468 52.8901C43.7916 53.4447 42.5087 53.517 40.8013 52.9604C39.0939 52.4038 37.0502 51.205 34.8934 49.4409C34.0503 48.7514 33.1891 47.9509 32.32 47.0981C34.2627 44.9872 36.1937 42.5697 38.0467 39.8769C40.8109 39.5928 43.4183 39.1565 45.8238 38.5857ZM26.3474 40.145C27.7084 40.2196 29.0873 40.27 30.5 40.27C31.866 40.27 33.2002 40.2226 34.518 40.1528C33.1709 41.9804 31.7977 43.6418 30.4301 45.1379C29.0633 43.6386 27.6927 41.9742 26.3474 40.145Z" fill="#F7F7F7"/>
</svg>
