<svg width="67" height="40" viewBox="0 0 67 40" fill="none" xmlns="http://www.w3.org/2000/svg">
<path fill-rule="evenodd" clip-rule="evenodd" d="M33.5 0C24.5688 0 18.9855 4.44444 16.75 13.3333C20.1015 8.89071 24.0091 7.22427 28.4728 8.33402C31.0246 8.96712 32.8348 10.8064 34.8631 12.8421C38.1346 16.1605 41.9513 19.9973 50.25 19.9973C59.1812 19.9973 64.7645 15.5528 67 6.66394C63.6522 11.1102 59.7446 12.7766 55.2772 11.6633C52.7254 11.0302 50.9152 9.19088 48.8869 7.15514C45.6045 3.82044 41.8041 0 33.5 0ZM16.75 19.9973C7.81885 19.9973 2.23551 24.4417 0 33.3306C3.35509 28.888 7.2627 27.2215 11.7228 28.3313C14.2746 28.9644 16.0848 30.8037 18.1131 32.8449C21.3846 36.1577 25.2013 40 33.5 40C42.4312 40 48.0145 35.5556 50.25 26.6667C46.9022 31.1093 42.9946 32.7721 38.5272 31.6551C35.9754 31.022 34.1652 29.1827 32.1369 27.1469C28.8654 23.8286 25.0487 19.9864 16.75 19.9864V19.9973Z" />
</svg>
